<svg xmlns="http://www.w3.org/2000/svg" viewBox="0 0 420 96" fill="none" aria-label="MindBloom">
  <!-- Icon -->
  <g transform="translate(0, 10) scale(0.28)" fill="currentColor" fill-rule="evenodd" clip-rule="evenodd">
    <path d="
      M 28 8 H 72
      C 83.0457 8 92 16.9543 92 28
      V 72
      C 92 83.0457 83.0457 92 72 92
      H 28
      C 16.9543 92 8 83.0457 8 72
      V 28
      C 8 16.9543 16.9543 8 28 8
      Z
      M 28 14 H 72
      C 79.732 14 86 20.268 86 28
      V 72
      C 86 79.732 79.732 86 72 86
      H 28
      C 20.268 86 14 79.732 14 72
      V 28
      C 14 20.268 20.268 14 28 14
      Z
    "/>
    <path d="
      M 30.5 50
      C 30.5 39.2 39.2 30.5 50 30.5
      C 56.4 30.5 62.0 33.3 65.8 37.8
      L 61.4 41.8
      C 59.0 39.0 54.9 37.0 50 37.0
      C 42.8 37.0 37.0 42.8 37.0 50
      Z
    "/>
    <path d="
      M 50 30.5
      C 60.8 30.5 69.5 39.2 69.5 50
      C 69.5 56.4 66.7 62.0 62.2 65.8
      L 58.2 61.4
      C 61.0 59.0 63.0 54.9 63.0 50
      C 63.0 42.8 57.2 37.0 50 37.0
      Z
    "/>
    <path d="
      M 69.5 50
      C 69.5 60.8 60.8 69.5 50 69.5
      C 43.6 69.5 38.0 66.7 34.2 62.2
      L 38.6 58.2
      C 41.0 61.0 45.1 63.0 50 63.0
      C 57.2 63.0 63.0 57.2 63.0 50
      Z
    "/>
    <circle cx="50" cy="50" r="5.25"/>
  </g>

  <!-- Wordmark -->
  <text
    x="56" y="60"
    fill="currentColor"
    font-family="Inter, ui-sans-serif, system-ui, -apple-system, Segoe UI, Roboto, Helvetica, Arial"
    font-size="40"
    font-weight="600"
    letter-spacing="-0.6"
  >MindBloom</text>
</svg>
